<?xml version="1.0" encoding="UTF-8" ?>
<!DOCTYPE svg PUBLIC "-//W3C//DTD SVG 1.1//EN" "http://www.w3.org/Graphics/SVG/1.1/DTD/svg11.dtd">
<svg width="1000pt" height="1000pt" viewBox="0 0 1000 1000" version="1.1" xmlns="http://www.w3.org/2000/svg">
<path fill="#fefeff" d=" M 0.00 0.00 L 1000.00 0.00 L 1000.00 1000.00 L 0.00 1000.00 L 0.00 0.00 Z" />
<path fill="#49bbda" d=" M 313.36 96.35 C 363.75 73.04 418.55 59.28 473.98 56.15 C 486.63 55.13 499.34 55.69 512.02 55.56 C 597.15 57.63 681.41 85.13 751.56 133.38 C 812.80 175.31 863.25 232.87 896.65 299.16 C 920.58 346.18 935.84 397.54 941.83 449.94 C 942.93 459.32 943.35 468.77 944.49 478.15 C 929.48 478.13 914.46 478.21 899.45 478.11 C 897.21 444.02 891.29 410.11 880.69 377.60 C 857.67 305.37 813.41 240.13 754.97 191.85 C 701.54 147.50 636.36 117.47 567.92 105.74 C 546.80 102.23 525.40 99.83 503.96 100.14 C 491.15 100.12 478.31 99.98 465.56 101.35 C 419.64 105.32 374.41 117.19 332.57 136.54 C 265.24 167.34 206.89 217.39 166.14 279.20 C 127.06 338.01 104.04 407.38 100.33 477.89 C 92.89 478.42 85.43 478.05 77.99 478.16 C 70.49 478.04 62.97 478.43 55.48 477.88 C 56.73 463.26 57.69 448.59 60.06 434.09 C 71.20 359.16 101.96 287.26 148.48 227.47 C 191.86 171.37 248.97 126.03 313.36 96.35 Z" />
<path fill="#06728b" d=" M 480.15 128.06 C 498.71 127.54 517.35 127.28 535.84 129.29 C 577.62 133.34 618.72 144.48 656.77 162.22 C 726.67 194.54 785.97 249.22 823.84 316.28 C 854.17 369.62 871.13 430.61 872.23 491.99 C 873.77 552.11 860.05 612.48 833.19 666.27 C 813.27 706.13 786.19 742.43 753.50 772.72 C 694.33 828.11 616.55 863.07 535.88 870.74 C 525.95 871.75 515.97 872.40 505.98 872.23 C 424.66 874.15 343.19 847.57 278.03 799.02 C 216.53 753.53 169.68 688.59 146.06 615.83 C 135.40 583.61 129.44 549.89 127.82 516.01 C 127.79 499.00 127.25 481.94 129.20 465.01 C 134.20 412.37 150.48 360.81 176.86 314.97 C 213.25 251.03 269.21 198.51 335.21 166.04 C 380.29 143.73 429.94 130.77 480.15 128.06 Z" />
<path fill="#fefeff" d=" M 436.02 241.73 C 478.05 230.86 522.76 230.55 564.94 240.85 C 605.82 250.69 644.27 270.41 676.11 297.87 C 728.71 342.85 762.77 409.08 767.83 478.18 C 746.57 477.48 725.28 478.05 704.02 477.87 C 615.18 477.88 526.31 477.86 437.47 477.86 C 440.04 459.79 445.42 441.84 455.69 426.58 C 466.11 410.77 481.35 398.25 498.81 390.95 C 518.27 382.46 539.90 380.21 560.94 381.46 C 580.62 382.44 600.17 386.72 618.30 394.49 C 624.38 372.97 629.88 351.28 635.73 329.69 C 622.42 322.80 607.59 319.46 592.89 317.08 C 574.45 313.96 555.71 313.38 537.06 313.73 C 501.83 315.08 466.42 323.76 435.99 341.91 C 405.70 359.66 381.13 387.00 367.03 419.18 C 358.81 437.74 353.72 457.67 351.52 477.83 C 313.18 477.96 274.83 477.82 236.48 477.86 C 240.88 424.16 262.07 371.97 296.44 330.46 C 331.98 287.08 381.65 255.50 436.02 241.73 Z" />
<path fill="#49bbda" d=" M 57.44 544.77 C 72.34 544.75 87.25 544.76 102.16 544.76 C 109.76 612.68 135.12 678.52 175.18 733.91 C 217.53 792.83 276.26 839.85 343.09 868.12 C 379.62 883.74 418.52 893.78 458.03 897.91 C 477.58 900.34 497.31 899.96 516.97 899.73 C 572.79 897.38 628.07 883.12 678.07 858.17 C 721.84 836.43 761.53 806.55 794.55 770.52 C 829.76 732.25 857.33 686.98 875.28 638.18 C 886.44 608.06 893.65 576.57 897.51 544.71 C 912.46 544.83 927.41 544.71 942.37 544.77 C 933.82 631.91 898.56 716.17 842.66 783.55 C 794.77 841.66 731.76 887.14 661.58 914.44 C 608.06 935.37 550.43 945.74 492.96 944.84 C 422.84 943.77 353.02 925.83 291.12 892.84 C 224.53 857.55 167.23 804.96 126.38 741.62 C 88.26 682.70 64.27 614.63 57.44 544.77 Z" />
<path fill="#fefeff" d=" M 239.35 544.78 C 277.41 544.76 315.47 544.81 353.53 544.76 C 357.80 566.34 365.06 587.51 376.76 606.24 C 394.20 634.83 421.37 656.99 452.36 669.46 C 472.57 677.74 494.18 682.20 515.89 684.14 C 543.69 685.56 571.81 684.96 599.11 679.06 C 609.98 676.87 620.80 674.02 630.87 669.31 C 626.99 647.85 623.03 626.40 619.07 604.95 C 615.65 605.81 612.35 607.07 608.98 608.10 C 592.83 613.17 575.92 615.13 559.12 616.41 C 536.32 617.35 512.86 614.11 492.29 603.83 C 468.50 592.19 450.57 570.02 442.96 544.78 C 550.28 544.77 657.60 544.78 764.92 544.78 C 755.11 605.51 722.76 662.13 676.10 702.13 C 650.10 724.54 619.71 741.83 587.17 752.74 C 545.82 766.69 501.02 770.28 458.01 762.94 C 412.77 755.42 369.62 735.88 334.06 706.93 C 284.23 666.72 249.95 607.92 239.35 544.78 Z" />
</svg>
